<svg width="37" height="37" viewBox="0 0 37 37" fill="none" xmlns="http://www.w3.org/2000/svg">
<path d="M20.0417 7.70832H32.375M20.0417 13.875H27.75M20.0417 23.125H32.375M20.0417 29.2917H27.75M4.625 7.70832C4.625 7.29945 4.78743 6.90732 5.07654 6.6182C5.36566 6.32908 5.75779 6.16666 6.16667 6.16666H12.3333C12.7422 6.16666 13.1343 6.32908 13.4235 6.6182C13.7126 6.90732 13.875 7.29945 13.875 7.70832V13.875C13.875 14.2839 13.7126 14.676 13.4235 14.9651C13.1343 15.2542 12.7422 15.4167 12.3333 15.4167H6.16667C5.75779 15.4167 5.36566 15.2542 5.07654 14.9651C4.78743 14.676 4.625 14.2839 4.625 13.875V7.70832ZM4.625 23.125C4.625 22.7161 4.78743 22.324 5.07654 22.0349C5.36566 21.7457 5.75779 21.5833 6.16667 21.5833H12.3333C12.7422 21.5833 13.1343 21.7457 13.4235 22.0349C13.7126 22.324 13.875 22.7161 13.875 23.125V29.2917C13.875 29.7005 13.7126 30.0927 13.4235 30.3818C13.1343 30.6709 12.7422 30.8333 12.3333 30.8333H6.16667C5.75779 30.8333 5.36566 30.6709 5.07654 30.3818C4.78743 30.0927 4.625 29.7005 4.625 29.2917V23.125Z" stroke="black" stroke-opacity="0.54902" stroke-width="3.08333" stroke-linecap="round" stroke-linejoin="round"/>
</svg>
