<svg width="20" height="24" viewBox="0 0 20 24" fill="none" xmlns="http://www.w3.org/2000/svg">
<path d="M12.9167 1.27234V5.93901C12.9167 6.24842 13.0396 6.54517 13.2584 6.76396C13.4772 6.98276 13.7739 7.10567 14.0833 7.10567H18.75M12.9167 1.27234H8.25C7.63116 1.27234 7.03767 1.51817 6.60008 1.95576C6.1625 2.39334 5.91667 2.98683 5.91667 3.60567V15.2723C5.91667 15.8912 6.1625 16.4847 6.60008 16.9223C7.03767 17.3598 7.63116 17.6057 8.25 17.6057H16.4167C17.0355 17.6057 17.629 17.3598 18.0666 16.9223C18.5042 16.4847 18.75 15.8912 18.75 15.2723V7.10567M12.9167 1.27234L18.75 7.10567M14.0833 17.6057V19.939C14.0833 20.5578 13.8375 21.1513 13.3999 21.5889C12.9623 22.0265 12.3688 22.2723 11.75 22.2723H3.58333C2.96449 22.2723 2.371 22.0265 1.93342 21.5889C1.49583 21.1513 1.25 20.5578 1.25 19.939V8.27234C1.25 7.6535 1.49583 7.06001 1.93342 6.62242C2.371 6.18484 2.96449 5.93901 3.58333 5.93901H5.91667" stroke="#261B8E" stroke-opacity="0.54902" stroke-width="2.33333" stroke-linecap="round" stroke-linejoin="round"/>
</svg>
