<svg width="21" height="19" viewBox="0 0 21 19" fill="none" xmlns="http://www.w3.org/2000/svg">
<path d="M11.75 2.77234H19.75M11.75 6.77234H16.75M11.75 12.7723H19.75M11.75 16.7723H16.75M1.75 2.77234C1.75 2.50712 1.85536 2.25277 2.04289 2.06523C2.23043 1.8777 2.48478 1.77234 2.75 1.77234H6.75C7.01522 1.77234 7.26957 1.8777 7.45711 2.06523C7.64464 2.25277 7.75 2.50712 7.75 2.77234V6.77234C7.75 7.03756 7.64464 7.29191 7.45711 7.47945C7.26957 7.66698 7.01522 7.77234 6.75 7.77234H2.75C2.48478 7.77234 2.23043 7.66698 2.04289 7.47945C1.85536 7.29191 1.75 7.03756 1.75 6.77234V2.77234ZM1.75 12.7723C1.75 12.5071 1.85536 12.2528 2.04289 12.0652C2.23043 11.8777 2.48478 11.7723 2.75 11.7723H6.75C7.01522 11.7723 7.26957 11.8777 7.45711 12.0652C7.64464 12.2528 7.75 12.5071 7.75 12.7723V16.7723C7.75 17.0376 7.64464 17.2919 7.45711 17.4794C7.26957 17.667 7.01522 17.7723 6.75 17.7723H2.75C2.48478 17.7723 2.23043 17.667 2.04289 17.4794C1.85536 17.2919 1.75 17.0376 1.75 16.7723V12.7723Z" stroke="#261B8E" stroke-opacity="0.54902" stroke-width="2" stroke-linecap="round" stroke-linejoin="round"/>
</svg>
