<svg width="24" height="24" viewBox="0 0 24 24" fill="none" xmlns="http://www.w3.org/2000/svg">
<path d="M10.5764 22.5L1.38889 13.3125M10.5764 22.5V14.625C10.5764 14.2769 10.4381 13.9431 10.192 13.6969C9.94582 13.4508 9.61198 13.3125 9.26389 13.3125H1.38889M10.5764 22.5H19.7639C20.4601 22.5 21.1278 22.2234 21.62 21.7312C22.1123 21.2389 22.3889 20.5712 22.3889 19.875V4.125C22.3889 3.42881 22.1123 2.76113 21.62 2.26884C21.1278 1.77656 20.4601 1.5 19.7639 1.5H4.01389C3.31769 1.5 2.65001 1.77656 2.15773 2.26884C1.66545 2.76113 1.38889 3.42881 1.38889 4.125V13.3125" stroke="#261B8E" stroke-opacity="0.54902" stroke-width="2.45" stroke-linecap="round" stroke-linejoin="round"/>
</svg>
