<svg width="20" height="24" viewBox="0 0 20 24" fill="none" xmlns="http://www.w3.org/2000/svg">
<path d="M17.2556 11.9943V10.2943C17.1881 8.85621 16.7305 7.46357 15.9319 6.26567C15.1333 5.06776 14.0237 4.10976 12.7222 3.49433C12.7222 2.89317 12.4834 2.31663 12.0583 1.89155C11.6332 1.46647 11.0567 1.22766 10.4556 1.22766C9.85439 1.22766 9.27786 1.46647 8.85278 1.89155C8.42769 2.31663 8.18889 2.89317 8.18889 3.49433C6.88736 4.10976 5.77783 5.06776 4.97923 6.26567C4.18063 7.46357 3.72305 8.85621 3.65555 10.2943V13.6943C3.57026 14.3989 3.32073 15.0737 2.92703 15.6642C2.53334 16.2547 2.00648 16.7446 1.38889 17.0943H13.8556V18.2277C13.8556 19.1294 13.4973 19.9942 12.8597 20.6318C12.2221 21.2695 11.3573 21.6277 10.4556 21.6277C9.55382 21.6277 8.68901 21.2695 8.05139 20.6318C7.41376 19.9942 7.05555 19.1294 7.05555 18.2277V17.0943M18.3889 15.961V19.361M18.3889 22.761V22.7723" stroke="#261B8E" stroke-opacity="0.54902" stroke-width="2.26667" stroke-linecap="round" stroke-linejoin="round"/>
</svg>
