<svg width="25" height="24" viewBox="0 0 25 24" fill="none" xmlns="http://www.w3.org/2000/svg">
<path d="M16.2037 18.784H3.85802C3.20317 18.784 2.57513 18.5238 2.11208 18.0608C1.64903 17.5977 1.38889 16.9697 1.38889 16.3148V3.96914M1.38889 3.96914C1.38889 3.31428 1.64903 2.68625 2.11208 2.22319C2.57513 1.76014 3.20317 1.5 3.85802 1.5H21.142C21.7968 1.5 22.4249 1.76014 22.8879 2.22319C23.351 2.68625 23.6111 3.31428 23.6111 3.96914M1.38889 3.96914L12.5 11.3765L23.6111 3.96914M23.6111 3.96914V9.52469M21.142 22.4877V22.5M21.142 18.784C21.6954 18.7822 22.2323 18.5948 22.6666 18.2518C23.101 17.9088 23.4077 17.43 23.5377 16.892C23.6677 16.354 23.6135 15.788 23.3837 15.2845C23.154 14.781 22.7619 14.3691 22.2704 14.1148C21.7792 13.8632 21.2174 13.7852 20.6763 13.8935C20.1352 14.0017 19.6466 14.2899 19.2901 14.7111" stroke="#261B8E" stroke-opacity="0.54902" stroke-width="2.46914" stroke-linecap="round" stroke-linejoin="round"/>
</svg>
