<svg width="32" height="32" viewBox="0 0 32 32" fill="none" xmlns="http://www.w3.org/2000/svg">
<path d="M25.5046 21.0011H21.5016C21.2253 21.0011 21.0013 21.2251 21.0013 21.5015V25.5044C21.0013 25.7808 21.2253 26.0048 21.5016 26.0048H25.5046C25.7809 26.0048 26.0049 25.7808 26.0049 25.5044V21.5015C26.0049 21.2251 25.7809 21.0011 25.5046 21.0011Z" fill="#737373"/>
<path d="M20.5018 16.999H17.4996C17.2232 16.999 16.9992 17.223 16.9992 17.4994V20.5016C16.9992 20.7779 17.2232 21.002 17.4996 21.002H20.5018C20.7781 21.002 21.0021 20.7779 21.0021 20.5016V17.4994C21.0021 17.223 20.7781 16.999 20.5018 16.999Z" fill="#737373"/>
<path d="M29.5018 26H26.4996C26.2232 26 25.9992 26.224 25.9992 26.5004V29.5026C25.9992 29.7789 26.2232 30.0029 26.4996 30.0029H29.5018C29.7781 30.0029 30.0021 29.7789 30.0021 29.5026V26.5004C30.0021 26.224 29.7781 26 29.5018 26Z" fill="#737373"/>
<path d="M29.512 16.999H27.5024C27.2249 16.999 27 17.224 27 17.5014V19.5111C27 19.7885 27.2249 20.0135 27.5024 20.0135H29.512C29.7895 20.0135 30.0144 19.7885 30.0144 19.5111V17.5014C30.0144 17.224 29.7895 16.999 29.512 16.999Z" fill="#737373"/>
<path d="M19.5113 26.9988H17.5016C17.2241 26.9988 16.9992 27.2237 16.9992 27.5012V29.5109C16.9992 29.7883 17.2241 30.0133 17.5016 30.0133H19.5113C19.7887 30.0133 20.0137 29.7883 20.0137 29.5109V27.5012C20.0137 27.2237 19.7887 26.9988 19.5113 26.9988Z" fill="#737373"/>
<path d="M25.5046 6.00046H21.5016C21.2253 6.00046 21.0013 6.22448 21.0013 6.50083V10.5038C21.0013 10.7801 21.2253 11.0041 21.5016 11.0041H25.5046C25.7809 11.0041 26.0049 10.7801 26.0049 10.5038V6.50083C26.0049 6.22448 25.7809 6.00046 25.5046 6.00046Z" fill="#737373"/>
<path d="M28.0029 3.00015H19.0016C18.4492 3.00015 18.0014 3.44793 18.0014 4.0003V13.0016C18.0014 13.5539 18.4492 14.0017 19.0016 14.0017H28.0029C28.5552 14.0017 29.003 13.5539 29.003 13.0016V4.0003C29.003 3.44793 28.5552 3.00015 28.0029 3.00015Z" stroke="#737373" stroke-width="2.00335" stroke-linecap="round" stroke-linejoin="round"/>
<path d="M10.502 6.00046H6.49904C6.22269 6.00046 5.99867 6.22448 5.99867 6.50083V10.5038C5.99867 10.7801 6.22269 11.0041 6.49904 11.0041H10.502C10.7783 11.0041 11.0023 10.7801 11.0023 10.5038V6.50083C11.0023 6.22448 10.7783 6.00046 10.502 6.00046Z" fill="#737373"/>
<path d="M13.0017 3.00015H4.00044C3.44808 3.00015 3.0003 3.44793 3.0003 4.0003V13.0016C3.0003 13.5539 3.44808 14.0017 4.00044 14.0017H13.0017C13.5541 14.0017 14.0019 13.5539 14.0019 13.0016V4.0003C14.0019 3.44793 13.5541 3.00015 13.0017 3.00015Z" stroke="#737373" stroke-width="2.00335" stroke-linecap="round" stroke-linejoin="round"/>
<path d="M10.502 21.0011H6.49904C6.22269 21.0011 5.99867 21.2251 5.99867 21.5015V25.5044C5.99867 25.7808 6.22269 26.0048 6.49904 26.0048H10.502C10.7783 26.0048 11.0023 25.7808 11.0023 25.5044V21.5015C11.0023 21.2251 10.7783 21.0011 10.502 21.0011Z" fill="#737373"/>
<path d="M13.0022 18.0008H4.00093C3.44857 18.0008 3.00079 18.4486 3.00079 19.0009V28.0022C3.00079 28.5546 3.44857 29.0024 4.00093 29.0024H13.0022C13.5546 29.0024 14.0024 28.5546 14.0024 28.0022V19.0009C14.0024 18.4486 13.5546 18.0008 13.0022 18.0008Z" stroke="#737373" stroke-width="2.00335" stroke-linecap="round" stroke-linejoin="round"/>
</svg>
