<svg width="25" height="25" viewBox="0 0 25 25" fill="none" xmlns="http://www.w3.org/2000/svg">
<path d="M2 4.625C2 3.92881 2.27656 3.26113 2.76884 2.76884C3.26113 2.27656 3.92881 2 4.625 2H7.25C7.94619 2 8.61387 2.27656 9.10615 2.76884C9.59844 3.26113 9.875 3.92881 9.875 4.625V5.9375C9.875 6.63369 9.59844 7.30137 9.10615 7.79365C8.61387 8.28594 7.94619 8.5625 7.25 8.5625H4.625C3.92881 8.5625 3.26113 8.28594 2.76884 7.79365C2.27656 7.30137 2 6.63369 2 5.9375V4.625Z" stroke="#354052" stroke-width="2.54907" stroke-linecap="round" stroke-linejoin="round"/>
<path d="M2 16.4375C2 15.7413 2.27656 15.0736 2.76884 14.5813C3.26113 14.0891 3.92881 13.8125 4.625 13.8125H7.25C7.94619 13.8125 8.61387 14.0891 9.10615 14.5813C9.59844 15.0736 9.875 15.7413 9.875 16.4375V20.375C9.875 21.0712 9.59844 21.7389 9.10615 22.2312C8.61387 22.7234 7.94619 23 7.25 23H4.625C3.92881 23 3.26113 22.7234 2.76884 22.2312C2.27656 21.7389 2 21.0712 2 20.375V16.4375Z" stroke="#354052" stroke-width="2.54907" stroke-linecap="round" stroke-linejoin="round"/>
<path d="M15.125 4.625C15.125 3.92881 15.4016 3.26113 15.8938 2.76884C16.3861 2.27656 17.0538 2 17.75 2H20.375C21.0712 2 21.7389 2.27656 22.2312 2.76884C22.7234 3.26113 23 3.92881 23 4.625V8.5625C23 9.25869 22.7234 9.92637 22.2312 10.4187C21.7389 10.9109 21.0712 11.1875 20.375 11.1875H17.75C17.0538 11.1875 16.3861 10.9109 15.8938 10.4187C15.4016 9.92637 15.125 9.25869 15.125 8.5625V4.625Z" stroke="#354052" stroke-width="2.54907" stroke-linecap="round" stroke-linejoin="round"/>
<path d="M15.125 19.0625C15.125 18.3663 15.4016 17.6986 15.8938 17.2063C16.3861 16.7141 17.0538 16.4375 17.75 16.4375H20.375C21.0712 16.4375 21.7389 16.7141 22.2312 17.2063C22.7234 17.6986 23 18.3663 23 19.0625V20.375C23 21.0712 22.7234 21.7389 22.2312 22.2312C21.7389 22.7234 21.0712 23 20.375 23H17.75C17.0538 23 16.3861 22.7234 15.8938 22.2312C15.4016 21.7389 15.125 21.0712 15.125 20.375V19.0625Z" stroke="#354052" stroke-width="2.54907" stroke-linecap="round" stroke-linejoin="round"/>
</svg>
