<svg width="25" height="25" viewBox="0 0 25 25" fill="none" xmlns="http://www.w3.org/2000/svg">
<path d="M9 18.3333V19.5C9 20.4283 9.36875 21.3185 10.0251 21.9749C10.6815 22.6313 11.5717 23 12.5 23C13.4283 23 14.3185 22.6313 14.9749 21.9749C15.6313 21.3185 16 20.4283 16 19.5V18.3333M23 6.34817C22.2347 4.68363 21.1235 3.20131 19.7403 2M2 6.34817C2.76457 4.68385 3.87501 3.20155 5.25733 2M10.1667 4.33333C10.1667 3.71449 10.4125 3.121 10.8501 2.68342C11.2877 2.24583 11.8812 2 12.5 2C13.1188 2 13.7123 2.24583 14.1499 2.68342C14.5875 3.121 14.8333 3.71449 14.8333 4.33333C16.1731 4.96687 17.3153 5.95305 18.1374 7.18618C18.9595 8.41932 19.4305 9.85292 19.5 11.3333V14.8333C19.5878 15.5587 19.8447 16.2532 20.25 16.8611C20.6552 17.4691 21.1976 17.9733 21.8333 18.3333H3.16667C3.80243 17.9733 4.34478 17.4691 4.75005 16.8611C5.15533 16.2532 5.4122 15.5587 5.5 14.8333V11.3333C5.56949 9.85292 6.04052 8.41932 6.86261 7.18618C7.6847 5.95305 8.82686 4.96687 10.1667 4.33333Z" stroke="#354052" stroke-width="2.44791" stroke-linecap="round" stroke-linejoin="round"/>
</svg>
