<svg width="25" height="25" viewBox="0 0 25 25" fill="none" xmlns="http://www.w3.org/2000/svg">
    <path
        d="M5.696 20.4905C5.98476 19.5294 6.57563 18.687 7.38095 18.0883C8.18628 17.4896 9.16315 17.1664 10.1667 17.1667H14.8333C15.8381 17.1663 16.8162 17.4903 17.6221 18.0904C18.428 18.6905 19.0187 19.5347 19.3063 20.4975M2 12.5C2 13.8789 2.27159 15.2443 2.79926 16.5182C3.32694 17.7921 4.10036 18.9496 5.07538 19.9246C6.05039 20.8996 7.20791 21.6731 8.48182 22.2007C9.75574 22.7284 11.1211 23 12.5 23C13.8789 23 15.2443 22.7284 16.5182 22.2007C17.7921 21.6731 18.9496 20.8996 19.9246 19.9246C20.8996 18.9496 21.6731 17.7921 22.2007 16.5182C22.7284 15.2443 23 13.8789 23 12.5C23 11.1211 22.7284 9.75574 22.2007 8.48182C21.6731 7.20791 20.8996 6.05039 19.9246 5.07538C18.9496 4.10036 17.7921 3.32694 16.5182 2.79927C15.2443 2.27159 13.8789 2 12.5 2C11.1211 2 9.75574 2.27159 8.48182 2.79927C7.20791 3.32694 6.05039 4.10036 5.07538 5.07538C4.10036 6.05039 3.32694 7.20791 2.79926 8.48182C2.27159 9.75574 2 11.1211 2 12.5ZM9 10.1667C9 11.0949 9.36875 11.9852 10.0251 12.6415C10.6815 13.2979 11.5717 13.6667 12.5 13.6667C13.4283 13.6667 14.3185 13.2979 14.9749 12.6415C15.6313 11.9852 16 11.0949 16 10.1667C16 9.23841 15.6313 8.34817 14.9749 7.69179C14.3185 7.03542 13.4283 6.66667 12.5 6.66667C11.5717 6.66667 10.6815 7.03542 10.0251 7.69179C9.36875 8.34817 9 9.23841 9 10.1667Z"
        stroke="#354052" stroke-width="2.45293" stroke-linecap="round" stroke-linejoin="round" />
</svg>