<svg width="360" height="640" viewBox="0 0 360 640" fill="none" xmlns="http://www.w3.org/2000/svg">
<g clip-path="url(#clip0_361_15694)">
<rect width="360" height="640" fill="white"/>
<path d="M110.062 -140.67C111.442 -143.062 114.5 -143.881 116.891 -142.5L500.626 79.0495C503.018 80.4301 503.837 83.4877 502.456 85.8789L378.449 300.666C376.863 303.414 372.652 301.777 373.338 298.68V298.68C390.129 222.85 326.356 153.439 249.379 163.762L169.832 174.429V174.429C97.9081 180.071 27.7133 150.491 -18.4796 95.0746L-22.6781 90.0377C-22.8413 89.842 -22.865 89.5652 -22.7376 89.3445L110.062 -140.67Z" fill="#442BA8"/>
<path d="M-9.47461 -79.4014C-9.47461 -82.1626 -7.23628 -84.4009 -4.47516 -84.4009H387.624C390.385 -84.4009 392.624 -82.1626 392.624 -79.4014V134.909C392.624 137.71 388.689 138.33 387.828 135.665V135.665C366.908 70.9202 288.417 46.0909 234.068 87.0254L176.277 130.551V130.551C123.372 166.046 56.7486 174.288 -3.21123 152.756L-9.11022 150.638C-9.32881 150.559 -9.47461 150.352 -9.47461 150.12V-79.4014Z" fill="#7B61FF"/>
<path d="M383.418 755.61C383.219 758.364 380.826 760.436 378.072 760.237L-13.0134 732.056C-15.7674 731.858 -17.839 729.464 -17.6406 726.71L-2.2375 512.954C-2.0362 510.16 1.93278 509.825 2.60012 512.545V512.545C18.8125 578.626 95.3157 609.032 152.467 572.11L213.236 532.85V532.85C268.555 501.25 335.599 497.817 393.857 523.603L399.588 526.139C399.8 526.233 399.931 526.451 399.914 526.682L383.418 755.61Z" fill="#7B61FF"/>
</g>
<defs>
<clipPath id="clip0_361_15694">
<rect width="360" height="640" fill="white"/>
</clipPath>
</defs>
</svg>
