<svg width="360" height="640" viewBox="0 0 360 640" fill="none" xmlns="http://www.w3.org/2000/svg">
<g clip-path="url(#clip0_361_15694)">
<rect width="360" height="640" fill="white"/>
<g filter="url(#filter0_f_361_15694)">
<path d="M110.062 -140.67C111.442 -143.062 114.5 -143.881 116.891 -142.5L500.626 79.0495C503.018 80.4301 503.837 83.4877 502.456 85.8789L378.449 300.666C376.863 303.414 372.652 301.777 373.338 298.68C390.129 222.85 326.356 153.439 249.379 163.762L169.832 174.429C97.9081 180.071 27.7133 150.491 -18.4796 95.0746L-22.6781 90.0377C-22.8413 89.842 -22.865 89.5652 -22.7376 89.3445L110.062 -140.67Z" fill="#442BA8"/>
</g>
<g filter="url(#filter1_f_361_15694)">
<path d="M-9.47461 -79.4014C-9.47461 -82.1626 -7.23628 -84.4009 -4.47516 -84.4009H387.624C390.385 -84.4009 392.624 -82.1626 392.624 -79.4014V134.909C392.624 137.71 388.689 138.33 387.828 135.665V135.665C366.908 70.9202 288.417 46.0909 234.068 87.0254L176.277 130.551V130.551C123.372 166.046 56.7486 174.288 -3.21123 152.756L-9.11022 150.638C-9.32881 150.559 -9.47461 150.352 -9.47461 150.12V-79.4014Z" fill="#7A62F6"/>
</g>
<g filter="url(#filter2_f_361_15694)">
<path d="M-43.6407 713.71C-43.8391 716.464 -41.7675 718.858 -39.0135 719.056L349.439 747.047C352.193 747.246 354.586 745.174 354.785 742.42L366.434 580.763C366.622 578.149 363.084 577.165 361.896 579.501V579.501C335.48 631.415 269.53 648.409 221.315 615.726L151.825 568.62V568.62C100.203 537.174 38.6469 526.28 -20.6324 538.099L-30.6214 540.09C-30.9261 540.151 -31.1527 540.408 -31.175 540.718L-43.6407 713.71Z" fill="#7B61FF"/>
</g>
<g filter="url(#filter3_f_361_15694)">
<path d="M402.928 801.934C402.729 804.688 400.336 806.759 397.582 806.561L-109.013 770.056C-111.767 769.858 -113.839 767.464 -113.641 764.71L-98.2377 550.957C-97.9928 547.558 -93.2527 546.961 -92.1729 550.193V550.193C-68.0748 622.323 14.1048 656.64 82.3428 623.07L179.385 575.328V575.328C251.441 544.158 332.65 541.54 406.563 568.005L418.819 572.393C419.193 572.527 419.432 572.894 419.404 573.29L402.928 801.934Z" fill="#442BA8"/>
</g>
</g>
<defs>
<filter id="filter0_f_361_15694" x="-92.8191" y="-213.171" width="665.946" height="585.237" filterUnits="userSpaceOnUse" color-interpolation-filters="sRGB">
<feFlood flood-opacity="0" result="BackgroundImageFix"/>
<feBlend mode="normal" in="SourceGraphic" in2="BackgroundImageFix" result="shape"/>
<feGaussianBlur stdDeviation="35" result="effect1_foregroundBlur_361_15694"/>
</filter>
<filter id="filter1_f_361_15694" x="-13.4746" y="-88.4009" width="410.098" height="256.957" filterUnits="userSpaceOnUse" color-interpolation-filters="sRGB">
<feFlood flood-opacity="0" result="BackgroundImageFix"/>
<feBlend mode="normal" in="SourceGraphic" in2="BackgroundImageFix" result="shape"/>
<feGaussianBlur stdDeviation="2" result="effect1_foregroundBlur_361_15694"/>
</filter>
<filter id="filter2_f_361_15694" x="-113.654" y="463.447" width="550.094" height="353.613" filterUnits="userSpaceOnUse" color-interpolation-filters="sRGB">
<feFlood flood-opacity="0" result="BackgroundImageFix"/>
<feBlend mode="normal" in="SourceGraphic" in2="BackgroundImageFix" result="shape"/>
<feGaussianBlur stdDeviation="35" result="effect1_foregroundBlur_361_15694"/>
</filter>
<filter id="filter3_f_361_15694" x="-117.654" y="544.062" width="541.06" height="266.512" filterUnits="userSpaceOnUse" color-interpolation-filters="sRGB">
<feFlood flood-opacity="0" result="BackgroundImageFix"/>
<feBlend mode="normal" in="SourceGraphic" in2="BackgroundImageFix" result="shape"/>
<feGaussianBlur stdDeviation="2" result="effect1_foregroundBlur_361_15694"/>
</filter>
<clipPath id="clip0_361_15694">
<rect width="360" height="640" fill="white"/>
</clipPath>
</defs>
</svg>
